<svg width="32" height="32" viewBox="0 0 32 32" fill="none" xmlns="http://www.w3.org/2000/svg">
<g clip-path="url(#clip0_1513_9182)">
<rect width="32" height="32" rx="16" fill="white"/>
<rect width="32" height="32" rx="16" fill="url(#paint0_radial_1513_9182)"/>
<path d="M16 33.0664C25.4257 33.0664 33.0667 25.4254 33.0667 15.9998C33.0667 6.57411 25.4257 -1.06689 16 -1.06689C6.57436 -1.06689 -1.06665 6.57411 -1.06665 15.9998C-1.06665 25.4254 6.57436 33.0664 16 33.0664Z" fill="url(#paint1_radial_1513_9182)"/>
<path d="M12.7831 14.7976C12.5969 14.9772 12.285 15.1609 11.8598 15.1609C10.9934 15.1609 10.4146 14.5578 10.4146 13.727C10.4146 12.8963 11.0016 12.2891 11.852 12.2891C12.2162 12.2891 12.5322 12.4049 12.7547 12.6085L12.5198 12.8963C12.3579 12.7565 12.1231 12.6528 11.852 12.6528C11.2245 12.6528 10.8319 13.104 10.8319 13.727C10.8319 14.3501 11.2571 14.7976 11.8643 14.7976C12.1841 14.7976 12.4069 14.6537 12.5528 14.5261L12.7835 14.7976H12.7831Z" fill="white"/>
<path d="M13.8741 12.7091V15.1095H13.4773V12.7091H12.9026V12.3457H14.4492V12.7091H13.8745H13.8741Z" fill="white"/>
<path d="M17.7715 15.1294H17.7109V14.766H17.7756C18.043 14.766 18.1155 14.4986 18.1361 14.1348L18.221 12.3457H19.8607V15.1095H19.464V12.7131H18.5815L18.5168 14.1629C18.4884 14.7742 18.298 15.1294 17.7719 15.1294H17.7715Z" fill="white"/>
<path d="M20.6926 14.4787L22.0732 12.3457H22.47V15.1095H22.0732V12.9765L20.6926 15.1095H20.2959V12.3457H20.6926V14.4787Z" fill="white"/>
<path d="M24.6039 12.3457H25.0006V14.7421H25.3125V15.6687H24.9401V15.1095H22.9077V12.3457H23.3045V14.7421H24.6043V12.3457H24.6039Z" fill="white"/>
<path d="M27.2226 14.1987H26.17L25.8218 15.1095H25.4292L26.4818 12.3457H26.8988L28 15.1095H27.5831L27.2226 14.1987ZM26.2956 13.8633H27.0891L26.6882 12.8448L26.2956 13.8633Z" fill="white"/>
<path d="M3.99902 18.3491H4.37558C4.38794 18.5967 4.5375 18.8084 4.86544 18.8084C5.19339 18.8084 5.33099 18.5849 5.33099 18.3211C5.33099 18.0333 5.16908 17.8537 4.80076 17.8537H4.57416V17.5103H4.81312C5.11264 17.5103 5.26672 17.3424 5.26672 17.0709C5.26672 16.7994 5.11676 16.6356 4.84567 16.6356C4.52967 16.6356 4.39618 16.8433 4.39206 17.0989H4.0155C4.00355 16.7193 4.20173 16.3003 4.84567 16.3003C5.38414 16.3003 5.67583 16.5998 5.67583 17.051C5.67583 17.3387 5.51803 17.5542 5.32357 17.6501C5.57447 17.7501 5.74464 17.9736 5.74464 18.3211C5.74464 18.8202 5.39238 19.1478 4.86627 19.1478C4.20626 19.1478 3.99161 18.7324 3.99985 18.3491H3.99902Z" fill="white"/>
<path d="M7.5871 18.1904H6.53446L6.18633 19.1012H5.7937L6.84634 16.3374H7.26327L8.36452 19.1012H7.94759L7.5871 18.1904ZM6.66012 17.855H7.45362L7.05275 16.8365L6.66012 17.855Z" fill="white"/>
<path d="M8.96933 17.5315L9.98572 16.3374H10.4595L9.31788 17.6555L10.4962 19.1012H10.0224L8.96974 17.8392V19.1012H8.573V16.3374H8.96974V17.5315H8.96933Z" fill="white"/>
<path d="M12.3454 18.1904H11.2928L10.9446 19.1012H10.552L11.6046 16.3374H12.0216L13.1228 19.1012H12.7059L12.3454 18.1904ZM11.4184 17.855H12.2119L11.811 16.8365L11.4184 17.855Z" fill="white"/>
<path d="M13.8741 16.7008V19.1012H13.4773V16.7008H12.9026V16.3374H14.4492V16.7008H13.8745H13.8741Z" fill="white"/>
<path d="M18.8117 19.1012H18.0425V16.3374H18.7631C19.2855 16.3374 19.5767 16.589 19.5767 17.0645C19.5767 17.3283 19.4552 17.5396 19.257 17.6437C19.5038 17.7477 19.6538 17.9632 19.6538 18.3025C19.6538 18.8057 19.3056 19.1012 18.8117 19.1012ZM18.4351 16.6808V17.5116H18.7429C19.0181 17.5116 19.168 17.3559 19.168 17.0922C19.168 16.8284 19.0263 16.6808 18.7429 16.6808H18.4351ZM18.4351 17.8433V18.7577H18.7672C19.079 18.7577 19.241 18.57 19.241 18.2903C19.241 18.0107 19.0832 17.8428 18.7672 17.8428H18.4351V17.8433Z" fill="white"/>
<path d="M17.1533 18.7247V13.5593C17.1561 13.5182 17.1582 13.4768 17.1582 13.4349C17.1582 12.6123 16.567 12.001 15.7171 12.001C14.8671 12.001 14.2879 12.6082 14.2879 13.439V18.7287C14.2862 18.758 14.2854 18.7873 14.2854 18.8169H14.7023C14.7023 18.1935 15.1073 17.7427 15.7187 17.7427C16.3301 17.7427 16.7376 18.1922 16.7388 18.8137V18.8149H17.1533V18.8129H17.1557C17.1557 18.7832 17.1549 18.7539 17.1533 18.7247ZM15.7212 12.3647C16.3285 12.3647 16.7413 12.8159 16.7413 13.439H16.7388V13.5186C16.7059 14.0998 16.3099 14.5095 15.7212 14.5095C15.1324 14.5095 14.7048 14.0661 14.7048 13.439C14.7048 12.8118 15.1098 12.3647 15.7212 12.3647ZM14.7023 17.7748V14.4835C14.8169 14.5949 14.952 14.6855 15.1048 14.7513V17.5033C14.9528 17.57 14.8173 17.6618 14.7023 17.7748ZM15.7146 17.379C15.6479 17.379 15.5832 17.3834 15.5193 17.3911V14.8611C15.5848 14.8688 15.652 14.8733 15.7212 14.8733C15.7904 14.8733 15.8567 14.8688 15.9218 14.8607V17.392C15.8547 17.3838 15.7855 17.379 15.7146 17.379ZM16.3363 17.5037V14.7489C16.4887 14.6822 16.6239 14.5908 16.7388 14.4786V17.7728C16.6243 17.661 16.4887 17.57 16.3363 17.5037Z" fill="white"/>
</g>
<defs>
<radialGradient id="paint0_radial_1513_9182" cx="0" cy="0" r="1" gradientUnits="userSpaceOnUse" gradientTransform="translate(16 16) scale(16)">
<stop stop-color="#FF5912"/>
<stop offset="1" stop-color="#BA0060"/>
</radialGradient>
<radialGradient id="paint1_radial_1513_9182" cx="0" cy="0" r="1" gradientUnits="userSpaceOnUse" gradientTransform="translate(16 15.9998) scale(17.0667)">
<stop stop-color="#BA0060"/>
<stop offset="0.15" stop-color="#C20A56"/>
<stop offset="0.4" stop-color="#D7263E"/>
<stop offset="0.72" stop-color="#FA5316"/>
<stop offset="0.76" stop-color="#FF5912"/>
<stop offset="1" stop-color="#BA0060" stop-opacity="0"/>
</radialGradient>
<clipPath id="clip0_1513_9182">
<rect width="32" height="32" rx="16" fill="white"/>
</clipPath>
</defs>
</svg>
