<?xml version="1.0" encoding="UTF-8"?><svg id="uuid-8dfdcf28-8b9b-40a9-a3e8-dda5d4dff0fc" xmlns="http://www.w3.org/2000/svg" viewBox="0 0 424 116"><defs><style>.uuid-d89a33b8-2cf7-40a1-9e8d-be6264f76054{fill:none;stroke:#e42d26;stroke-linecap:round;stroke-linejoin:round;stroke-width:4px;}</style></defs><path class="uuid-d89a33b8-2cf7-40a1-9e8d-be6264f76054" d="m6.62,51.93v7.77l9.28,29.87,35.46,3.28,17.72-3.88,68.87,21.79,120.32-2.56,75.51-4.83,8.53-2.46,74.94-6.73v-6.54l-5.31-16.67-11.27-3.41-8.53-6.35-4.55-9.76-1.14-9.19,3.13,1.8,11.46,1.23-11.08-24.54-114.54,4.36s-.19-3.69-3.86-3.55-3.93,2.58-3.93,2.58c0,0-4.88.81-5.54,2.08s-34.67,2.52-34.67,2.52c0,0-.41-3.61-3.42-3.82s-4.31,2.77-4.31,2.77c0,0-5.31.38-5.78,1.78s-65.49,4.83-65.49,4.83c0,0,.11-4.23-4.34-4.33s-4.61,3.44-4.61,3.44c0,0-3.98,1.01-4.99,1.83s-5.65.6-5.65.6c0,0-.79-1.36-3.13-1.11s-2.62,1.39-2.62,1.39l-47.18,5.87-1.77.25v-7.2l-4.93,1.07v7.2l-39.22,5.43v-10.61l-5.31,1.64v9.09l-18.06,3.03Z"/></svg>