<?xml version="1.0" encoding="UTF-8"?><svg id="uuid-de9f1556-0238-49ea-b1a6-4b0a66040e1e" xmlns="http://www.w3.org/2000/svg" viewBox="0 0 339 199"><defs><style>.uuid-b228196e-fa70-434e-876b-00b9221b78da{fill:none;stroke:#e42d26;stroke-linecap:round;stroke-linejoin:round;stroke-width:4px;}</style></defs><path class="uuid-b228196e-fa70-434e-876b-00b9221b78da" d="m7.31,179.66l60.22,3.28,22.58,9.88s3.09.82,7.2-.57,18.06-6,18.06-6l1.26-2.27,13.26-.25,22.55-9.41,5.94,3.79h7.07s40.61-18.63,40.61-18.63l8.72-2.65,30.32-13.45,64.86-31.96,21.85-10.36.38-5.31-14.08-31.01-5.81-4.17-3.22-13.64s2.78-8.59,1.52-12.32-4.93-7.2-7.01-7.14-4.11,4.86-4.11,4.86l-1.01,1.64-3.54-2.08.13-9.98-15.47-15.98-25.45,11.81-2.4-.38-3.92,2.02-3.92.19-5.49,2.84-.57,2.08-2.72-.13-5.94,4.42-36.32,17.68v12.13l-11.81,6.06-9.66-8.59-12.69,7.14,1.07,1.07v10.11l-3.09,1.45-12.57-12.95-2.08-.06-22.29,10.36v1.77l-1.52.57-5.62.51-.57,8.27-2.72.88v12.88l-4.04,1.39-37.89,18.88v-4.74l-5.24-2.59-.88.06v9.47l-1.96-.25v-5.49l-1.77-3.73-4.48-3.22s-4.74-1.14-4.93,2.02,0,5.68,0,5.68c0,0-1.77-2.72-5.62-1.83s-5.81,5.75-5.87,7.58.51,5.56.51,5.56l-1.64-.13s-2.34-6-7.45-6.57-3.6,7.07-3.6,7.07c0,0-3.73-.63-4.99,3.85s-3.79,4.29-4.29,6.51,1.39,4.36,1.39,4.36l-3.92.88.57,6.51,3.09,6.13-9.16,10.93.19,13.23Z"/></svg>