<?xml version="1.0" encoding="UTF-8"?><svg id="uuid-3354da2d-d198-48c2-bdcf-971817681675" xmlns="http://www.w3.org/2000/svg" viewBox="0 0 295 190"><defs><style>.uuid-a8b43aab-5bb8-4f03-bc31-f9102fa8f57f{fill:none;stroke:#e42d26;stroke-linecap:round;stroke-linejoin:round;stroke-width:4px;}</style></defs><path class="uuid-a8b43aab-5bb8-4f03-bc31-f9102fa8f57f" d="m9.21,143.31l13.45-32.97-6.25-29.46-4.74-24.44-4.93-19.42-.09-8.15,45.66-5.21,2.94-4.74,1.71.28v3.03l35.05-3.88,3.79-.76v-6.92l4.36-4.55v11.27l53.43-1.89,23.4-.95,8.24,19.89h8.34l10.61-16.77,20.46,1.33s11.75-2.56,18.38,3.22,5.02,17.81,5.02,17.81l12.13,6.16,16.58-7.48,12.98,11.75v5.4l-206.24,117.76-38.4,11.12-17.18-26.53-3.09,6.95-10.67-1.52-5.12-14.59.19-5.75Z"/></svg>