<svg xmlns="http://www.w3.org/2000/svg" width="603" height="289" viewBox="0 0 603 289" fill="none">
    <path opacity="0.3" d="M192 195.4H159.6V283H121.2V195.4H0.8V161.8L121.2 6.19999H159.6V160.6H192V195.4ZM121.2 59.4L42.8 160.6H121.2V59.4ZM385.963 89V199.8C385.963 252.6 354.363 288.2 300.763 288.2C242.763 288.2 215.963 253.8 215.963 199.8V89C215.963 35.8 243.963 0.599988 301.163 0.599988C355.563 0.599988 385.963 36.6 385.963 89ZM346.763 89C346.763 59 331.563 37 301.163 37C269.163 37 255.563 58.2 255.563 89V200.6C255.563 230.6 269.163 251.8 301.163 251.8C331.563 251.8 346.763 230.2 346.763 200.6V89ZM602.156 195.4H569.756V283H531.356V195.4H410.956V161.8L531.356 6.19999H569.756V160.6H602.156V195.4ZM531.356 59.4L452.956 160.6H531.356V59.4Z" fill="white" />
</svg>