<svg width="430" height="370" viewBox="0 0 430 370" fill="none" xmlns="http://www.w3.org/2000/svg">
<g clip-path="url(#clip0_2640_16437)">
<rect width="430" height="380" fill="white"/>
<g clip-path="url(#clip1_2640_16437)">
<path d="M850.317 -499.784H-210.781V560.616H850.317V-499.784Z" fill="url(#paint0_linear_2640_16437)"/>
<path d="M-210.78 916.863L848.781 916.863L848.781 -142.001L-210.78 -142.001L-210.78 916.863Z" fill="url(#paint1_radial_2640_16437)"/>
<g filter="url(#filter0_f_2640_16437)">
<path d="M402.5 -163L411.563 183.073L492.63 -153.56L429.292 186.829L578.82 -125.652L445.85 194.175L657.305 -80.4953L460.514 204.792L724.653 -20.0644L472.642 218.215L777.922 53L481.704 233.858L814.783 135.505L487.305 251.036L833.625 223.844L489.2 269L833.625 314.156L487.305 286.964L814.783 402.495L481.704 304.142L777.922 485L472.642 319.785L724.653 558.064L460.514 333.208L657.305 618.495L445.85 343.825L578.82 663.652L429.292 351.171L492.63 691.56L411.563 354.927L402.5 701L393.437 354.927L312.37 691.56L375.708 351.171L226.18 663.652L359.15 343.825L147.695 618.495L344.486 333.208L80.3467 558.064L332.358 319.785L27.078 485L323.296 304.142L-9.78299 402.495L317.695 286.964L-28.6252 314.156L315.8 269L-28.6252 223.844L317.695 251.036L-9.78299 135.505L323.296 233.858L27.078 53L332.358 218.215L80.3467 -20.0644L344.486 204.792L147.695 -80.4953L359.15 194.175L226.18 -125.652L375.708 186.829L312.37 -153.56L393.437 183.073L402.5 -163Z" fill="url(#paint2_radial_2640_16437)"/>
</g>
<path d="M-19 177L478 177L478 479L-19 479L-19 177Z" fill="url(#paint3_linear_2640_16437)"/>
</g>
</g>
<defs>
<filter id="filter0_f_2640_16437" x="-40.6252" y="-175" width="886.25" height="888" filterUnits="userSpaceOnUse" color-interpolation-filters="sRGB">
<feFlood flood-opacity="0" result="BackgroundImageFix"/>
<feBlend mode="normal" in="SourceGraphic" in2="BackgroundImageFix" result="shape"/>
<feGaussianBlur stdDeviation="6" result="effect1_foregroundBlur_2640_16437"/>
</filter>
<linearGradient id="paint0_linear_2640_16437" x1="248.001" y1="-68.499" x2="243.501" y2="373.501" gradientUnits="userSpaceOnUse">
<stop stop-color="#BA0060"/>
<stop offset="0.95" stop-color="#FF5912"/>
</linearGradient>
<radialGradient id="paint1_radial_2640_16437" cx="0" cy="0" r="1" gradientUnits="userSpaceOnUse" gradientTransform="translate(367.705 384.962) rotate(180) scale(767.472 428.842)">
<stop stop-color="#FF5912"/>
<stop offset="1" stop-color="#BA0060"/>
</radialGradient>
<radialGradient id="paint2_radial_2640_16437" cx="0" cy="0" r="1" gradientUnits="userSpaceOnUse" gradientTransform="translate(402.5 269) scale(433.5 432)">
<stop offset="0.230769" stop-color="#FF5912" stop-opacity="0.4"/>
<stop offset="1" stop-color="#FF5912"/>
</radialGradient>
<linearGradient id="paint3_linear_2640_16437" x1="230" y1="552.5" x2="230" y2="223.5" gradientUnits="userSpaceOnUse">
<stop offset="0.557001" stop-color="#BA0060"/>
<stop offset="0.95" stop-color="#BA0060" stop-opacity="0"/>
</linearGradient>
<clipPath id="clip0_2640_16437">
<rect width="430" height="380" fill="white"/>
</clipPath>
<clipPath id="clip1_2640_16437">
<rect width="676" height="380" fill="white" transform="translate(-19)"/>
</clipPath>
</defs>
</svg>
