<svg xmlns="http://www.w3.org/2000/svg" width="63" height="63" viewBox="0 0 63 63" fill="none">
    <path d="M12.3213 10.7441C13.2461 10.2092 14.318 10.0419 15.3682 10.2695L15.5781 10.3203C16.6932 10.619 17.6164 11.3264 18.1885 12.3145V12.3154L25.5508 25.0693L26.6689 27.0078L27.3672 24.8818C27.6775 23.9365 28.2901 23.1447 29.123 22.6133L29.293 22.5107L29.2939 22.5098C30.8479 21.6125 32.7438 21.8001 34.0869 22.8447L35.3359 23.8164L35.6768 22.2705C35.9287 21.1297 36.6369 20.0982 37.7197 19.4727L37.7207 19.4736C39.4587 18.4734 41.6168 18.8261 42.9551 20.2051L44.1221 21.4072L44.626 19.8096C44.9067 18.9203 45.4776 18.1755 46.2578 17.6768L46.416 17.5801L46.418 17.5791C47.2688 17.0862 48.254 16.9318 49.2197 17.1406L49.4121 17.1865C50.3759 17.444 51.1843 18.0335 51.7158 18.8584L51.8184 19.0264L59.7383 32.7432C64.0652 40.2423 61.5935 49.8304 54.252 54.3193L53.8984 54.5293L45.8867 59.1562C43.3405 60.6271 40.6213 61.3553 37.9141 61.3555L37.4062 61.3467C35.0362 61.2672 32.6669 60.63 30.4199 59.4238L29.9404 59.1562H29.9395L11.7168 48.6377C11.2121 48.346 10.8336 47.8981 10.6299 47.3535L10.5537 47.1143C10.4009 46.5434 10.4497 45.9584 10.6875 45.4346L10.8008 45.2139V45.2129C11.6843 43.6812 13.0313 42.5633 14.6113 42.0176L14.9297 41.916C16.5659 41.4396 18.2918 41.6095 19.8359 42.4043L20.1416 42.5723H20.1426L25.2969 45.5479L28.5283 47.4131L26.6631 44.1816L10.7461 16.6113C10.211 15.6835 10.0449 14.6117 10.2725 13.5625L10.3232 13.3535C10.6035 12.3074 11.2434 11.4314 12.1377 10.8564L12.3203 10.7451L12.3213 10.7441ZM7.7334 2.80176C14.068 -0.854321 22.1707 1.23294 25.9658 7.43457L26.1436 7.7334V7.73438C26.7969 8.86308 27.2821 10.08 27.584 11.3467L27.7021 11.8926V11.8936C27.7913 12.3515 27.517 12.7963 27.0801 12.9287L26.9902 12.9502C26.532 13.0396 26.0875 12.7654 25.9551 12.3281L25.9326 12.2383C25.7164 11.1289 25.3397 10.0579 24.8154 9.05859L24.582 8.63477C21.4127 3.14808 14.4328 1.20592 8.89746 4.21582L8.63477 4.36328L8.13477 4.65234V4.66895C2.95036 8.01657 1.24526 14.9019 4.3623 20.3066V20.3076C4.92444 21.2874 5.62743 22.1786 6.44727 22.9531L6.80566 23.2783C7.15786 23.5842 7.21502 24.1031 6.95215 24.4766L6.89551 24.5498C6.73962 24.7293 6.52917 24.8326 6.30859 24.8555L6.21387 24.8604H6.21289C6.05069 24.8605 5.89259 24.8163 5.75488 24.7344L5.625 24.6406L5.62402 24.6396L5.20996 24.2646C4.39851 23.4984 3.68662 22.6332 3.09082 21.6895L2.80273 21.2109L2.80078 21.209L2.63184 20.9062C-0.786061 14.6212 1.33189 6.7144 7.43555 2.97949L7.7334 2.80176Z" fill="white" stroke="#E52A24" stroke-width="2" />
</svg>