<svg xmlns="http://www.w3.org/2000/svg" width="158" height="74" viewBox="0 0 158 74" fill="none">
    <path d="M10.84 0.52V59H0.12V0.52H10.84ZM15.4731 37.72C15.4731 25 24.9131 15.48 37.7931 15.48C51.3131 15.48 60.1931 24.92 60.1931 37.56C60.1931 50.12 50.9931 59.72 37.7931 59.72C24.4331 59.72 15.4731 50.36 15.4731 37.72ZM26.1931 37.64C26.1931 44.84 30.9931 50.04 37.8731 50.04C44.9131 50.04 49.4731 44.76 49.4731 37.64C49.4731 30.52 44.6731 25.16 37.7931 25.16C30.7531 25.16 26.1931 30.44 26.1931 37.64ZM97.7675 20.2V16.2H107.848V51.8C107.848 67.88 98.2475 73.64 84.9675 73.64C78.2475 73.64 72.5675 71.8 69.0475 69.8L72.4875 61.32C75.0475 62.76 79.6875 64.44 85.0475 64.44C91.7675 64.44 97.1275 61.72 97.2075 55.48V54.92C95.3675 57.08 91.4475 59.72 85.3675 59.72C72.1675 59.72 63.2075 50.76 63.2075 37.72C63.2075 25.32 72.1675 15.48 84.9675 15.48C90.4875 15.48 95.0475 17.32 97.7675 20.2ZM73.9275 37.64C73.9275 44.84 78.8075 50.2 85.7675 50.2C92.9675 50.2 97.5275 44.76 97.5275 37.64C97.5275 30.44 92.8075 25 85.7675 25C78.5675 25 73.9275 30.44 73.9275 37.64ZM112.426 37.72C112.426 25 121.866 15.48 134.746 15.48C148.266 15.48 157.146 24.92 157.146 37.56C157.146 50.12 147.946 59.72 134.746 59.72C121.386 59.72 112.426 50.36 112.426 37.72ZM123.146 37.64C123.146 44.84 127.946 50.04 134.826 50.04C141.866 50.04 146.426 44.76 146.426 37.64C146.426 30.52 141.626 25.16 134.746 25.16C127.706 25.16 123.146 30.44 123.146 37.64Z" fill="black" />
</svg>