<svg width="135" height="551" viewBox="0 0 135 551" fill="none" xmlns="http://www.w3.org/2000/svg">
<g clip-path="url(#clip0_158_1707)">
<g clip-path="url(#clip1_158_1707)">
<rect width="709" height="213" transform="translate(-26 629) rotate(-90)" fill="url(#paint0_linear_158_1707)"/>
<g filter="url(#filter0_f_158_1707)">
<path d="M127 -245L133.732 11.7512L193.948 -237.996L146.901 14.5373L257.969 -217.291L159.2 19.9878L316.267 -183.79L170.092 27.8644L366.293 -138.956L179.101 37.823L405.86 -84.75L185.832 49.4282L433.24 -23.5399L189.993 62.1729L447.236 41.9986L191.4 75.5L447.236 109.001L189.993 88.8272L433.24 174.54L185.832 101.572L405.86 235.75L179.101 113.177L366.293 289.956L170.092 123.136L316.267 334.79L159.2 131.012L257.969 368.291L146.901 136.463L193.948 388.996L133.732 139.249L127 396L120.268 139.249L60.0525 388.996L107.099 136.463L-3.96917 368.291L94.8 131.012L-62.2668 334.79L83.908 123.136L-112.293 289.956L74.8993 113.177L-151.86 235.75L68.1677 101.572L-179.24 174.54L64.0073 88.8272L-193.236 109.001L62.6 75.5L-193.236 41.9986L64.0073 62.1729L-179.24 -23.5399L68.1677 49.4282L-151.86 -84.75L74.8993 37.823L-112.293 -138.956L83.908 27.8644L-62.2668 -183.79L94.8 19.9878L-3.96917 -217.291L107.099 14.5373L60.0525 -237.996L120.268 11.7512L127 -245Z" fill="url(#paint1_radial_158_1707)"/>
</g>
</g>
</g>
<defs>
<filter id="filter0_f_158_1707" x="-201.236" y="-253" width="656.473" height="657" filterUnits="userSpaceOnUse" color-interpolation-filters="sRGB">
<feFlood flood-opacity="0" result="BackgroundImageFix"/>
<feBlend mode="normal" in="SourceGraphic" in2="BackgroundImageFix" result="shape"/>
<feGaussianBlur stdDeviation="4" result="effect1_foregroundBlur_158_1707"/>
</filter>
<linearGradient id="paint0_linear_158_1707" x1="92.5" y1="47.5" x2="599.917" y2="456.362" gradientUnits="userSpaceOnUse">
<stop offset="0.0811095" stop-color="#E42523"/>
<stop offset="0.548785" stop-color="#E95C22"/>
<stop offset="1" stop-color="#FF7B0E"/>
</linearGradient>
<radialGradient id="paint1_radial_158_1707" cx="0" cy="0" r="1" gradientUnits="userSpaceOnUse" gradientTransform="translate(127 75.5) scale(322 320.5)">
<stop offset="1" stop-color="#FF7B0E"/>
</radialGradient>
<clipPath id="clip0_158_1707">
<rect width="551" height="135" fill="white" transform="translate(2.4085e-05 551) rotate(-90)"/>
</clipPath>
<clipPath id="clip1_158_1707">
<rect width="709" height="213" fill="white" transform="translate(-26 629) rotate(-90)"/>
</clipPath>
</defs>
</svg>
