<svg width="1670" height="503" viewBox="0 0 1670 503" fill="none" xmlns="http://www.w3.org/2000/svg">
<path d="M610.874 183.842C593.881 201.075 571.111 210.606 547.478 210.375C487.992 210.375 448.237 166.32 448.237 105.664C448.237 45.0072 488.551 0.672852 546.92 0.672852C571.943 0.672852 593.642 9.0431 608.932 23.9979L592.791 45.0072C580.042 33.4725 563.754 27.1518 546.92 27.2065C503.841 27.2065 476.877 60.1574 476.877 105.664C476.877 151.17 506.128 183.786 547.771 183.786C565.345 183.674 582.227 176.586 595.025 163.948L610.874 183.842Z" fill="white"/>
<path d="M686.095 31.2794V206.275H658.602V31.2794H618.798V4.79199H725.9V31.2794H686.095Z" fill="white"/>
<path d="M956.268 206.275H952.009V179.976H956.54C975.259 179.976 980.36 160.619 981.798 134.293L987.875 4.79199H1102.74V204.837H1074.83V31.3946H1013L1008.44 136.312C1006.46 180.557 993.138 206.275 956.268 206.275Z" fill="white"/>
<path d="M1161.99 160.263L1257.73 4.79199H1285.23V206.275H1257.73V50.8038L1161.99 206.275H1134.49V4.79199H1161.99V160.263Z" fill="white"/>
<path d="M1434.46 4.79199H1461.96V179.729H1483.56V247.394H1457.75V206.56H1316.96V4.79199H1344.43V179.729H1434.46V4.79199Z" fill="white"/>
<path d="M1616.03 139.903H1542.94L1518.74 206.275H1491.5L1564.59 4.79199H1593.55L1670 206.275H1641.06L1616.03 139.903ZM1551.65 115.421H1606.81L1578.97 41.1948L1551.65 115.421Z" fill="white"/>
<path d="M0.0156049 443.633H26.544C27.3901 461.866 37.9523 477.398 61.0691 477.398C83.3126 477.398 93.8202 460.91 93.8202 441.495C93.8202 420.336 82.4119 407.083 56.4567 407.083H40.4632V381.76H57.3027C78.4272 381.76 89.2624 369.407 89.2624 349.402C89.2624 329.396 78.7547 317.326 59.6499 317.326C37.3792 317.326 27.9632 332.604 27.6903 351.428H1.16191C0.288547 323.488 14.2623 292.621 59.6499 292.621C97.5866 292.621 118.138 314.681 118.138 347.911C118.138 369.098 107.003 384.967 93.3017 392.03C110.987 399.402 122.969 415.862 122.969 441.439C122.969 478.214 98.1598 502.327 61.0691 502.327C14.5626 502.44 -0.557539 471.855 0.0156049 443.633Z" fill="white"/>
<path d="M250.306 431.835H175.569L150.822 498.206H122.968L197.704 296.724H227.236L305.437 498.206H275.878L250.306 431.835ZM184.478 407.297H240.82L212.36 333.043L184.478 407.297Z" fill="white"/>
<path d="M345.139 383.79L416.403 296.724H449.645L369.582 392.814L452.198 498.206H418.983L345.139 406.294V498.206H317.329V296.724H345.139V383.79Z" fill="white"/>
<path d="M580.623 431.835H507.599L483.419 498.206H456.176L529.227 296.724H558.27L634.679 498.206H605.61L580.623 431.835ZM516.304 407.297H571.354L543.547 333.043L516.304 407.297Z" fill="white"/>
<path d="M686.069 323.239V498.206H658.602V323.239H618.798V296.724H725.9V323.239H686.069Z" fill="white"/>
<path d="M1030.74 498.206H975.824V296.724H1027.29C1064.59 296.724 1085.36 315.078 1085.36 349.643C1085.36 368.861 1076.7 384.291 1062.52 391.867C1080.16 399.443 1090.86 415.151 1090.86 439.912C1090.89 476.677 1066 498.206 1030.74 498.206ZM1003.86 321.763V382.23H1025.99C1045.65 382.23 1056.4 370.866 1056.4 351.592C1056.4 332.319 1046.28 321.596 1025.99 321.596L1003.86 321.763ZM1003.86 406.489V473.167H1027.56C1049.68 473.167 1061.38 459.492 1061.38 439.104C1061.38 419.301 1050.13 406.489 1027.56 406.489H1003.86Z" fill="white"/>
<path d="M939.757 491.49V114.41C939.971 111.426 940.104 108.414 940.104 105.346C940.104 45.2698 899.282 0.672852 840.602 0.672852C783.579 0.672852 741.955 44.9909 741.955 105.625V491.769C741.955 493.889 741.768 496.037 741.768 498.212H770.56C770.56 452.75 798.523 419.812 840.709 419.812C882.894 419.812 911.018 452.667 911.125 497.905H939.757V497.766H939.917C939.917 495.758 939.864 493.61 939.757 491.49ZM840.842 27.1968C882.761 27.1968 911.259 60.1355 911.259 105.625H911.072V111.37C908.799 153.792 881.478 183.69 840.842 183.69C799.459 183.69 770.693 151.31 770.693 105.597C770.693 59.8844 798.684 27.1968 840.896 27.1968H840.842ZM770.506 422.127V181.878C778.526 190.124 787.945 196.744 798.282 201.401V402.213C787.954 407.03 778.559 413.78 770.56 422.127H770.506ZM840.388 393.232C835.919 393.248 831.455 393.546 827.021 394.125V209.406C831.643 209.989 836.294 210.287 840.949 210.298C845.579 210.291 850.204 209.984 854.797 209.378V394.18C850.036 393.549 845.241 393.232 840.441 393.232H840.388ZM883.295 402.324V201.234C893.631 196.486 903.045 189.803 911.072 181.515V421.987C903.057 413.725 893.661 407.061 883.349 402.324H883.295Z" fill="white"/>
</svg>
