<svg xmlns="http://www.w3.org/2000/svg" width="24" height="24" viewBox="0 0 24 24" fill="none">
    <path fill-rule="evenodd" clip-rule="evenodd" d="M11.9997 11.1724C12.2283 11.1724 12.4135 11.3576 12.4135 11.5862V23.5862C12.4135 23.8147 12.2283 23.9999 11.9997 23.9999C11.7712 23.9999 11.5859 23.8147 11.5859 23.5862V11.5862C11.5859 11.3576 11.7712 11.1724 11.9997 11.1724Z" fill="black" />
    <path d="M12.0001 11.5862C15.1996 11.5862 17.7932 8.99255 17.7932 5.7931C17.7932 2.59366 15.1996 0 12.0001 0C8.80069 0 6.20703 2.59366 6.20703 5.7931C6.20703 8.99255 8.80069 11.5862 12.0001 11.5862Z" fill="#DD352E" />
    <path d="M12.0001 11.5862C15.1996 11.5862 17.7932 8.99255 17.7932 5.7931C17.7932 2.59366 15.1996 0 12.0001 0C8.80069 0 6.20703 2.59366 6.20703 5.7931C6.20703 8.99255 8.80069 11.5862 12.0001 11.5862Z" fill="url(#paint0_linear_1873_9946)" />
    <path d="M9.93083 5.37924C10.6164 5.37924 11.1722 4.82346 11.1722 4.13786C11.1722 3.45227 10.6164 2.89648 9.93083 2.89648C9.24524 2.89648 8.68945 3.45227 8.68945 4.13786C8.68945 4.82346 9.24524 5.37924 9.93083 5.37924Z" fill="#F76363" />
    <defs>
        <linearGradient id="paint0_linear_1873_9946" x1="12.0004" y1="0" x2="12.0004" y2="11.5862" gradientUnits="userSpaceOnUse">
            <stop stop-color="#B90F62" />
            <stop offset="0.99" stop-color="#E95C22" />
        </linearGradient>
    </defs>
</svg>