<svg xmlns="http://www.w3.org/2000/svg" xmlns:xlink="http://www.w3.org/1999/xlink" viewBox="0 0 300 300">
    <style>:root>svg{display:none}:root>svg:target{display:block}</style>
    <svg id="btn-prev" xmlns="http://www.w3.org/2000/svg" viewBox="0 0 73 35" fill="none">
        <path d="M1.39257 20.8275L15.7404 35L17.8909 32.8758L3.84421 19.0008L73.001 19.0008V15.9962L3.85029 15.9962L17.894 2.12421L15.7435 0L1.39257 14.1755C-0.462883 16.0082 -0.462883 18.9948 1.39257 20.8275Z" fill="#BA0060" />
    </svg>
    <svg id="btn-next" xmlns="http://www.w3.org/2000/svg" viewBox="0 0 73 35" fill="none">
        <path d="M71.6094 14.1725L57.2615 0L55.111 2.12422L69.1577 15.9992H0.000976562V19.0038H69.1517L55.108 32.8758L57.2585 35L71.6094 20.8245C73.4648 18.9918 73.4648 16.0052 71.6094 14.1725Z" fill="#BA0060" />
    </svg>
    <svg id="link" xmlns="http://www.w3.org/2000/svg" viewBox="0 0 54 55">
        <path d="M2.66068 46.3082L0.0090332 48.9597L5.31233 54.2627L7.96398 51.6112L2.66068 46.3082ZM49.6308 9.94461C51.0953 8.48016 51.0953 6.10581 49.6308 4.64131C48.1663 3.17686 45.7918 3.17686 44.3273 4.64131L49.6308 9.94461ZM7.96398 51.6112L49.6308 9.94461L44.3273 4.64131L2.66068 46.3082L7.96398 51.6112Z" />
        <path fill-rule="evenodd" clip-rule="evenodd" d="M5.72668 0.0078125H50.5182C52.2441 0.0078125 53.6432 1.40692 53.6432 3.13281V47.9246H47.3932V6.25781H5.72668V0.0078125Z" />
    </svg>
    <svg id="vk" xmlns="http://www.w3.org/2000/svg" viewBox="0 0 22 22">
        <path d="M19.5064 10.0169C19.8192 9.63031 20.0676 9.32009 20.251 9.08604C21.572 7.40699 22.1446 6.3344 21.9691 5.86678L21.9003 5.75726C21.8545 5.69148 21.7359 5.63107 21.5452 5.57639C21.3542 5.52175 21.1099 5.51301 20.8122 5.54909L17.5134 5.57133C17.4371 5.56406 17.3601 5.56576 17.2842 5.57639C17.2079 5.58749 17.1583 5.59863 17.1352 5.60926C17.1122 5.6204 17.0933 5.62933 17.0781 5.6366L17.0323 5.66947C16.9942 5.69124 16.9522 5.72968 16.9064 5.7846C16.8606 5.83948 16.8222 5.90309 16.7918 5.97633C16.4329 6.85959 16.0245 7.68098 15.5662 8.44023C15.2836 8.89288 15.0239 9.28556 14.7875 9.61727C14.5507 9.94974 14.3522 10.1942 14.1918 10.3509C14.0315 10.5078 13.8862 10.634 13.7565 10.7286C13.6265 10.8238 13.5274 10.8637 13.4589 10.8492C13.3937 10.8357 13.3287 10.821 13.2641 10.8052C13.1571 10.7397 13.0711 10.6505 13.0064 10.5371C12.9414 10.4242 12.8976 10.2817 12.8746 10.1101C12.8518 9.93864 12.8382 9.79068 12.8346 9.66638C12.8306 9.54237 12.8326 9.3673 12.8404 9.14072C12.848 8.91437 12.8518 8.76135 12.8518 8.68084C12.8518 8.40372 12.8576 8.10247 12.8691 7.7775C12.8804 7.45278 12.8901 7.19526 12.8976 7.00542C12.9052 6.81586 12.909 6.61492 12.909 6.40311C12.909 6.19178 12.8956 6.0254 12.8687 5.90478C12.8417 5.78427 12.8015 5.66683 12.7486 5.55442C12.695 5.4415 12.6168 5.35371 12.5136 5.29184C12.4105 5.2297 12.2827 5.18063 12.13 5.14384C11.725 5.05605 11.2096 5.00916 10.5836 5.00145C9.16319 4.98743 8.25065 5.07494 7.84597 5.2645C7.68562 5.34502 7.54044 5.4543 7.41071 5.5931C7.27313 5.7539 7.25416 5.84165 7.35356 5.85567C7.81183 5.92146 8.13613 6.07862 8.32706 6.3267L8.39587 6.45799C8.44922 6.55324 8.50262 6.72108 8.55622 6.96188C8.60961 7.20273 8.644 7.46918 8.65941 7.76127C8.6976 8.29416 8.6976 8.75021 8.65941 9.13009C8.62123 9.50993 8.58506 9.80542 8.55068 10.0167C8.51625 10.2286 8.46468 10.4 8.39612 10.5313C8.32731 10.663 8.28156 10.7433 8.25854 10.7726C8.23552 10.8016 8.21655 10.8199 8.20138 10.8272C8.10268 10.8635 7.99783 10.882 7.89209 10.8819C7.78509 10.8819 7.65533 10.8306 7.50258 10.7283C7.34979 10.6265 7.19122 10.4858 7.02732 10.3069C6.86292 10.1282 6.67802 9.87795 6.47163 9.55659C6.26549 9.23574 6.0515 8.85586 5.83019 8.41798L5.64707 8.10025C5.53251 7.89619 5.37592 7.59853 5.17739 7.20802C4.97885 6.81752 4.80305 6.43985 4.65055 6.07451C4.58934 5.92146 4.49776 5.80467 4.37564 5.72415L4.31849 5.69128C4.2803 5.66224 4.21909 5.63107 4.13512 5.59839C4.05031 5.56535 3.96192 5.54143 3.87157 5.52708L0.733062 5.54885C0.412363 5.54885 0.194858 5.6185 0.0802987 5.75726L0.0345082 5.8228C0.011365 5.85955 0 5.91806 0 5.9981C0 6.07862 0.0230192 6.17704 0.0688098 6.29359C0.527087 7.32315 1.02537 8.31597 1.56357 9.27201C2.10207 10.2286 2.56973 10.9989 2.9668 11.5828C3.36387 12.1673 3.76854 12.718 4.18107 13.2364C4.5936 13.7548 4.86648 14.0868 5.00001 14.2326C5.13354 14.3789 5.23851 14.4885 5.31493 14.5612L5.60124 14.8243C5.78436 14.9994 6.05373 15.2092 6.40886 15.4539C6.76394 15.6986 7.157 15.9394 7.58875 16.1764C8.02 16.4139 8.52229 16.607 9.09488 16.757C9.66751 16.9069 10.2249 16.967 10.7672 16.9376H12.0844C12.3518 16.9158 12.554 16.8358 12.6915 16.6967L12.7372 16.6421C12.7675 16.5985 12.7964 16.5309 12.8232 16.4397C12.8497 16.3485 12.8635 16.2479 12.8635 16.1386C12.8556 15.8248 12.8807 15.5414 12.9378 15.29C12.995 15.038 13.0599 14.8484 13.1326 14.7203C13.2052 14.5929 13.2871 14.485 13.3789 14.3973C13.4705 14.3095 13.5352 14.257 13.5736 14.2386C13.6118 14.2207 13.6425 14.2079 13.6653 14.2002C13.8483 14.1419 14.0641 14.1985 14.3124 14.3699C14.5606 14.5419 14.7935 14.7532 15.0113 15.0051C15.2287 15.257 15.4903 15.5397 15.7958 15.8538C16.1011 16.1676 16.3684 16.4012 16.5976 16.5545L16.8267 16.6863C16.9794 16.7736 17.1778 16.8538 17.4223 16.9271C17.6667 16.9999 17.8807 17.0183 18.0637 16.9818L20.9961 16.9378C21.2862 16.9378 21.5116 16.8923 21.672 16.8009C21.8323 16.7102 21.9277 16.6092 21.9583 16.4999C21.9886 16.3904 21.9907 16.2668 21.9641 16.1277C21.9373 15.9892 21.9105 15.8925 21.884 15.8378C21.8572 15.7832 21.8323 15.7372 21.8093 15.701C21.4275 15.044 20.6982 14.2371 19.6215 13.2809L19.5985 13.2591L19.5872 13.248L19.5758 13.2373H19.5643C19.0754 12.7919 18.7663 12.4926 18.6365 12.339C18.3999 12.0475 18.3462 11.7517 18.4762 11.4524C18.5673 11.2254 18.9107 10.7472 19.5064 10.0169Z" />
    </svg>
    <svg id="telegram" xmlns="http://www.w3.org/2000/svg" viewBox="0 0 22 22">
        <path d="M8.40229 13.2756L8.12037 17.2642C8.52373 17.2642 8.69842 17.0899 8.90791 16.8806L10.799 15.0628L14.7175 17.9492C15.4362 18.3521 15.9425 18.1399 16.1364 17.2842L18.7085 5.16136L18.7092 5.16064C18.9371 4.09207 18.325 3.67421 17.6248 3.93636L2.50606 9.7585C1.47423 10.1614 1.48986 10.7399 2.33066 11.0021L6.19591 12.2114L15.1741 6.56064C15.5966 6.27921 15.9808 6.43493 15.6648 6.71636L8.40229 13.2756Z" />
    </svg>
    <svg id="logo" viewBox="0 0 177 54" xmlns="http://www.w3.org/2000/svg">
        <path d="M64.8449 19.5309C63.0514 21.3525 60.6482 22.3599 58.1539 22.3356C51.8756 22.3356 47.6797 17.6789 47.6797 11.2675C47.6797 4.85608 51.9345 0.169922 58.095 0.169922C60.736 0.169922 63.0262 1.05466 64.64 2.63539L62.9364 4.85608C61.5908 3.63686 59.8718 2.96876 58.095 2.97454C53.5483 2.97454 50.7024 6.45746 50.7024 11.2675C50.7024 16.0775 53.7897 19.525 58.1848 19.525C60.0396 19.5132 61.8215 18.764 63.1722 17.4282L64.8449 19.5309Z" />
        <path d="M72.7854 3.4052V21.9023H69.8837V3.4052H65.6826V0.605469H76.9865V3.4052H72.7854Z" />
        <path d="M101.3 21.9023H100.851V19.1225H101.329C103.305 19.1225 103.843 17.0764 103.995 14.2938L104.636 0.605469H116.76V21.7503H113.813V3.41737H107.288L106.807 14.5071C106.597 19.1839 105.192 21.9023 101.3 21.9023Z" />
        <path d="M123.012 17.0388L133.116 0.605469H136.019V21.9023H133.116V5.46894L123.012 21.9023H120.109V0.605469H123.012V17.0388Z" />
        <path d="M151.769 0.605469H154.672V19.0963H156.951V26.2486H154.227V21.9325H139.367V0.605469H142.267V19.0963H151.769V0.605469Z" />
        <path d="M170.932 14.8868H163.218L160.664 21.9023H157.789L165.503 0.605469H168.559L176.628 21.9023H173.575L170.932 14.8868ZM164.138 12.299H169.959L167.021 4.45326L164.138 12.299Z" />
        <path d="M0.372741 46.9913H3.17265C3.26194 48.9186 4.37672 50.5603 6.81656 50.5603C9.16421 50.5603 10.2732 48.8174 10.2732 46.7653C10.2732 44.5288 9.06915 43.128 6.32974 43.128H4.64173V40.4513H6.41904C8.64859 40.4513 9.79218 39.1456 9.79218 37.031C9.79218 34.9165 8.68316 33.6406 6.66677 33.6406C4.31623 33.6406 3.32244 35.2555 3.29363 37.2452H0.493726C0.401548 34.2919 1.87639 31.0293 6.66677 31.0293C10.6707 31.0293 12.8398 33.361 12.8398 36.8734C12.8398 39.1129 11.6645 40.7903 10.2185 41.5368C12.0851 42.316 13.3497 44.0559 13.3497 46.7594C13.3497 50.6465 10.7312 53.1953 6.81656 53.1953C1.90808 53.2072 0.312249 49.9744 0.372741 46.9913Z" />
        <path d="M26.7894 45.7442H18.9014L16.2895 52.7597H13.3496L21.2376 31.4629H24.3545L32.6081 52.7597H29.4884L26.7894 45.7442ZM19.8417 43.1505H25.7881L22.7844 35.3019L19.8417 43.1505Z" />
        <path d="M36.7995 40.6658L44.3209 31.4629H47.8294L39.3792 41.6196L48.0988 52.7597H44.5932L36.7995 43.0445V52.7597H33.8643V31.4629H36.7995V40.6658Z" />
        <path d="M61.6522 45.7442H53.945L51.3929 52.7597H48.5176L56.2276 31.4629H59.2929L67.3574 52.7597H64.2893L61.6522 45.7442ZM54.8637 43.1505H60.6739L57.739 35.3019L54.8637 43.1505Z" />
        <path d="M72.7826 34.2656V52.7597H69.8837V34.2656H65.6826V31.4629H76.9865V34.2656H72.7826Z" />
        <path d="M109.159 52.7597H103.362V31.4629H108.794C112.731 31.4629 114.923 33.403 114.923 37.0565C114.923 39.0878 114.009 40.7188 112.512 41.5196C114.374 42.3203 115.504 43.9807 115.504 46.5979C115.506 50.484 112.88 52.7597 109.159 52.7597ZM106.322 34.1095V40.5009H108.657C110.732 40.5009 111.867 39.2998 111.867 37.2625C111.867 35.2253 110.799 34.0919 108.657 34.0919L106.322 34.1095ZM106.322 43.0651V50.1131H108.823C111.158 50.1131 112.392 48.6676 112.392 46.5126C112.392 44.4194 111.205 43.0651 108.823 43.0651H106.322Z" />
        <path d="M99.5576 52.0495V12.192C99.5802 11.8766 99.5943 11.5582 99.5943 11.2339C99.5943 4.88384 95.2857 0.169922 89.0924 0.169922C83.074 0.169922 78.6808 4.85436 78.6808 11.2634V52.079C78.6808 52.3031 78.6611 52.5301 78.6611 52.76H81.6999C81.6999 47.9547 84.6513 44.4731 89.1037 44.4731C93.5561 44.4731 96.5244 47.9459 96.5357 52.7276H99.5576V52.7128H99.5745C99.5745 52.5006 99.5689 52.2736 99.5576 52.0495ZM89.1178 2.97351C93.542 2.97351 96.5498 6.45514 96.5498 11.2634H96.53V11.8707C96.2902 16.3547 93.4066 19.515 89.1178 19.515C84.75 19.515 81.714 16.0923 81.714 11.2604C81.714 6.42861 84.6682 2.97351 89.1234 2.97351H89.1178ZM81.6943 44.7178V19.3233C82.5407 20.195 83.5348 20.8948 84.6259 21.387V42.6129C83.5358 43.1221 82.5441 43.8355 81.6999 44.7178H81.6943ZM89.0698 41.6636C88.5982 41.6653 88.1271 41.6968 87.659 41.7579V22.2331C88.1468 22.2947 88.6377 22.3263 89.1291 22.3274C89.6177 22.3267 90.1059 22.2942 90.5906 22.2301V41.7638C90.0881 41.697 89.582 41.6636 89.0755 41.6636H89.0698ZM93.5984 42.6246V21.3693C94.6893 20.8674 95.6829 20.161 96.53 19.285V44.703C95.6841 43.8297 94.6925 43.1253 93.6041 42.6246H93.5984Z" />
    </svg>
    <svg id="chevron-bot" xmlns="http://www.w3.org/2000/svg" viewBox="0 0 24 24">
        <path fill-rule="evenodd" clip-rule="evenodd" d="M23 9L12.4242 19.5758C12.0167 19.9833 11.356 19.9833 10.9485 19.5758L0.372643 8.99994L1.84834 7.52424L11.6864 17.3623L21.5243 7.5243L23 9Z" />
    </svg>
    <svg id="upload" xmlns="http://www.w3.org/2000/svg" viewBox="0 0 24 24">
        <path d="M12.0222 17.2474C12.3178 17.2479 12.6105 17.19 12.8837 17.077C13.1568 16.964 13.4049 16.7982 13.6137 16.589L16.5529 13.648L15.4924 12.5907L12.7677 15.3157L12.7482 3H11.2482L11.2677 15.3037L8.55269 12.5892L7.49219 13.648L10.4314 16.5868C10.64 16.7962 10.8879 16.9624 11.1609 17.0758C11.4339 17.1891 11.7266 17.2475 12.0222 17.2474Z" />
        <path d="M19.5 15.001V18.7503C19.5 18.9492 19.421 19.1399 19.2803 19.2805C19.1397 19.4211 18.9489 19.5002 18.75 19.5002H5.25C5.05109 19.5002 4.86032 19.4211 4.71967 19.2805C4.57902 19.1399 4.5 18.9492 4.5 18.7503V15.001H3V18.7503C3 19.3469 3.23705 19.9191 3.65901 20.341C4.08097 20.7629 4.65326 20.9999 5.25 20.9999H18.75C19.3467 20.9999 19.919 20.7629 20.341 20.341C20.7629 19.9191 21 19.3469 21 18.7503V15.001H19.5Z" />
    </svg>
</svg>