<?xml version="1.0" encoding="UTF-8"?><svg id="uuid-f3f5a523-b583-4dc8-91a5-a64c09fd0f02" xmlns="http://www.w3.org/2000/svg" viewBox="0 0 343 129"><defs><style>.uuid-6660d361-0792-40d3-99fa-f87312a4b908{fill:none;stroke:#e42d26;stroke-linecap:round;stroke-linejoin:round;stroke-width:4px;}</style></defs><path class="uuid-6660d361-0792-40d3-99fa-f87312a4b908" d="m6.09,85.9v8.53l12.25,15.66,3.66-3.98,12.82-2.21v6.82l6.88,12.69,295.01-60.32v-8.12l-3.85-6.51,2.15-2.18v-8.15l-6.95-19.77.13-4.11-3.6-5.62-20.78,4.55.06-6.95-6.06,2.97-.19,6.06-3.28.69v8.53l-39.98,9.76-1.33-2.84v-13.83l-5.4,3.41v5.87l-25.77,5.12v-7.64l-5.87,3.19v11.02l-28.01,6.35v-12.51l-6.38,3.54v10.11l-36.25,8.08s.69-12.06,0-12.06-4.99,2.02-4.99,2.02v11.37l-39.47,7.52v-15.98l-5.68,3.92v10.8l-37.64,8.46v-13.71l-5.24,3.98v10.99l-35.94,7.71v-13.2l-5.31,4.23v10.67l-3.98.82v3.88l-1.01.35Z"/></svg>