<?xml version="1.0" encoding="UTF-8"?><svg id="uuid-b8948a2e-c24e-4a0a-9905-b92879aeb77b" xmlns="http://www.w3.org/2000/svg" viewBox="0 0 308 180"><defs><style>.uuid-8f044874-af87-4bfb-b86b-d2f9e84d8699{fill:none;stroke:#e42d26;stroke-linecap:round;stroke-linejoin:round;stroke-width:4px;}</style></defs><path class="uuid-8f044874-af87-4bfb-b86b-d2f9e84d8699" d="m6.15,91.02h2.59l-.09-2.81,17.15-.92.32-10.74-2.4-8.46.51-8.34,106.11-8.65.69-17.18,4.11-.06-3.22-19.2s2.4-4.93,7.52-5.31,8.15,4.55,8.15,4.55l10.67,36,90.13-6.19.44,6.69,5.56,4.48,6.32.32,5.12,13.45,23.37-.44v3.16h-2.97l1.39,8.59,3.28.57,3.54,10.04-1.33,1.71,8.59,28.36-.57,5.62-68.46,5.37-7.07,5.49,3.6,12.51-.19,6.51-20.59,4.67-.32,6s-18,6.63-39.35,6.38-29.81-.82-29.81-.82l-2.15-5.68-29.62-1.71-4.42-16.99-15.85-5.49-68.46,5.37-11.81-50.91-.44-5.94Z"/></svg>