<?xml version="1.0" encoding="UTF-8"?><svg id="uuid-ec07bfdc-74ec-4885-a0e9-c998d622780d" xmlns="http://www.w3.org/2000/svg" viewBox="0 0 471 214"><defs><style>.uuid-fd6acbd6-5525-4723-acf1-55edcb343a30{fill:none;stroke:#e42d26;stroke-linecap:round;stroke-linejoin:round;stroke-width:4px;}</style></defs><polygon class="uuid-fd6acbd6-5525-4723-acf1-55edcb343a30" points="5.73 150.23 6.21 155.16 41.64 208.4 464.64 76.33 464.64 71.31 422.51 5.25 405.59 11 406.15 13.4 386.07 18.83 385.75 28.87 382.34 24.64 357.52 33.42 355.31 30.58 324.05 39.86 324.05 49.27 317.61 39.67 299.8 45.8 299.8 47.38 279.59 53.63 279.59 62.22 276.24 58.93 250.98 67.71 249.02 65.12 217.82 74.91 217.82 84.01 211.38 73.78 193.75 79.78 193.75 81.99 172.91 87.92 172.91 96.89 169.12 93.17 144.49 102.07 142.28 99.1 109.69 109.4 109.69 115.52 67.79 129.29 66.37 128.53 43.91 137.63 42.11 136.87 5.73 150.23"/></svg>