<?xml version="1.0" encoding="UTF-8"?><svg id="uuid-21de1c02-b24a-4818-8d77-7602fc87a72f" xmlns="http://www.w3.org/2000/svg" viewBox="0 0 199 148"><defs><style>.uuid-c6fe4672-75fc-4fa4-8581-62e8d70624a1{fill:none;stroke:#e42d26;stroke-linecap:round;stroke-linejoin:round;stroke-width:4px;}</style></defs><path class="uuid-c6fe4672-75fc-4fa4-8581-62e8d70624a1" d="m6.72,116.66v-10.36s8.59-4.8,13.26-11.87,4.29-7.58,4.29-7.58v-26.53l9.6-17.12.06-2.91,8.34-6.32s-.06-17.62,7.07-18.82,9.16,9.92,9.16,9.92l7.96-5.94V7.46l4.55.63.63,8.91,1.39-4.99,3.41-.63,1.39,2.72,7.07-2.02.69-4.36,2.59.57v3.35l7.64.38,1.14-5.68,2.53.25.44,5.81,2.91.69.88-1.64,2.65-.06-.25,3.28,9.85,5.43.38-9.54,4.23,3.03v12.69l21.47,25.33,49.77,61.01v7.96l-9.66,6.35-3.79,8.72-11.27,4.36-13.17,1.8-34.86-15.82L6.72,116.66Z"/></svg>