<?xml version="1.0" encoding="UTF-8"?><svg id="uuid-a97e1c2f-9aae-4532-a2d8-d071185a5c18" xmlns="http://www.w3.org/2000/svg" viewBox="0 0 442 308"><defs><style>.uuid-591356dd-aa24-4093-9e87-6084373536cd{fill:none;stroke:#e42d26;stroke-linecap:round;stroke-linejoin:round;stroke-width:4px;}</style></defs><path class="uuid-591356dd-aa24-4093-9e87-6084373536cd" d="m7.72,104.85v7.83l108.51,55.2,112.8,134.91,146.27-63.92,34.86-12.25s10.36-2.91,13.89-7.96,5.05-13.64,5.05-13.64l5.12-26.87.66-11.94-.28-7.58s-.76-5.87-6.54-9.28-11.84-6.44-11.84-6.44v-6.16l-122.78-56.4-.33-9.11-9.05-6.21s-3.65,1.56-4.31,4.83-1.14,4.59-1.14,4.59l-18.05-9.43-88.77-40.17.62-11.75-10.61-7.48s-2.75,1.61-5.35,6.06-2.23,5.64-2.23,5.64l-16.82-7.39-.19,4.07-4.78-1.99-3.79.81-18.62,12.17s-1.18-8.24-8.24-7.34-6.87,12.03-6.87,12.03l.33,3.17-10.14,7.58-.66-7.29s-6.58-6.54-8.34-5.16-5.78,9.52-5.12,12.6,6.82,6.25,6.82,6.25l-30.6,25.15s-4.45-7.06-7.63-6.92-5.59,8.1-5.21,11.84,3.27,4.07,3.27,4.07l-12.36,9.33.81,2.56-2.84,1.75-2.27-.28-13.26,10.5Z"/></svg>